<?xml version="1.0" encoding="utf-8"?>
<!-- Generator: Adobe Illustrator 19.0.0, SVG Export Plug-In . SVG Version: 6.00 Build 0)  -->
<svg version="1.1" id="Layer_1" xmlns="http://www.w3.org/2000/svg" xmlns:xlink="http://www.w3.org/1999/xlink" x="0px" y="0px"
	 viewBox="0 0 630.3 101.7" style="enable-background:new 0 0 630.3 101.7;" xml:space="preserve">
<style type="text/css">
	.st0{fill:#FFE133;stroke:#000000;stroke-width:0.45;stroke-miterlimit:10;}
	.st1{fill:#FFFFFF;stroke:#000000;stroke-width:0.45;stroke-miterlimit:10;}
	.st2{fill:#FFC033;stroke:#000000;stroke-width:0.45;stroke-miterlimit:10;}
	.st3{stroke:#000000;stroke-width:0.45;stroke-miterlimit:10;}
</style>
<g id="XMLID_177_">
	<rect id="XMLID_175_" x="122" y="0" class="st0" width="20.3" height="20.3"/>
	<rect id="XMLID_174_" x="142.3" y="0" class="st0" width="20.3" height="20.3"/>
	<rect id="XMLID_173_" x="162.6" y="0" class="st0" width="20.3" height="20.3"/>
	<rect id="XMLID_172_" x="183" y="0" class="st0" width="20.3" height="20.3"/>
	<rect id="XMLID_171_" x="203.3" y="0" class="st0" width="20.3" height="20.3"/>
	<rect id="XMLID_170_" x="223.6" y="0" class="st0" width="20.3" height="20.3"/>
	<rect id="XMLID_169_" x="244" y="0" class="st0" width="20.3" height="20.3"/>
	<rect id="XMLID_168_" x="264.3" y="0" class="st0" width="20.3" height="20.3"/>
	<rect id="XMLID_167_" x="284.6" y="0" class="st0" width="20.3" height="20.3"/>
	<rect id="XMLID_166_" x="305" y="0" class="st0" width="20.3" height="20.3"/>
	<rect id="XMLID_165_" x="325.3" y="0" class="st0" width="20.3" height="20.3"/>
	<rect id="XMLID_164_" x="345.6" y="0" class="st1" width="20.3" height="20.3"/>
	<rect id="XMLID_163_" x="366" y="0" class="st0" width="20.3" height="20.3"/>
	<rect id="XMLID_162_" x="386.3" y="0" class="st0" width="20.3" height="20.3"/>
	<rect id="XMLID_161_" x="406.6" y="0" class="st0" width="20.3" height="20.3"/>
	<rect id="XMLID_160_" x="426.9" y="0" class="st1" width="20.3" height="20.3"/>
	<rect id="XMLID_159_" x="447.3" y="0" class="st0" width="20.3" height="20.3"/>
	<rect id="XMLID_158_" x="467.6" y="0" class="st0" width="20.3" height="20.3"/>
	<rect id="XMLID_157_" x="487.9" y="0" class="st0" width="20.3" height="20.3"/>
	<rect id="XMLID_156_" x="122" y="20.3" class="st0" width="20.3" height="20.3"/>
	<rect id="XMLID_155_" x="142.3" y="20.3" class="st0" width="20.3" height="20.3"/>
	<rect id="XMLID_154_" x="162.6" y="20.3" class="st0" width="20.3" height="20.3"/>
	<rect id="XMLID_197_" x="61" y="0" class="st1" width="20.3" height="20.3"/>
	<rect id="XMLID_196_" x="81.3" y="0" class="st0" width="20.3" height="20.3"/>
	<rect id="XMLID_195_" x="101.7" y="0" class="st0" width="20.3" height="20.3"/>
	<rect id="XMLID_194_" x="61" y="20.3" class="st0" width="20.3" height="20.3"/>
	<rect id="XMLID_193_" x="81.3" y="20.3" class="st1" width="20.3" height="20.3"/>
	<rect id="XMLID_192_" x="101.7" y="20.3" class="st0" width="20.3" height="20.3"/>
	<rect id="XMLID_203_" x="0" y="0" class="st0" width="20.3" height="20.3"/>
	<rect id="XMLID_202_" x="20.3" y="0" class="st0" width="20.3" height="20.3"/>
	<rect id="XMLID_201_" x="40.7" y="0" class="st0" width="20.3" height="20.3"/>
	<rect id="XMLID_200_" x="0" y="20.3" class="st0" width="20.3" height="20.3"/>
	<rect id="XMLID_199_" x="20.3" y="20.3" class="st1" width="20.3" height="20.3"/>
	<rect id="XMLID_198_" x="40.7" y="20.3" class="st0" width="20.3" height="20.3"/>
	<rect id="XMLID_153_" x="183" y="20.3" class="st1" width="20.3" height="20.3"/>
	<rect id="XMLID_152_" x="203.3" y="20.3" class="st0" width="20.3" height="20.3"/>
	<rect id="XMLID_151_" x="223.6" y="20.3" class="st0" width="20.3" height="20.3"/>
	<rect id="XMLID_150_" x="244" y="20.3" class="st0" width="20.3" height="20.3"/>
	<rect id="XMLID_149_" x="264.3" y="20.3" class="st0" width="20.3" height="20.3"/>
	<rect id="XMLID_148_" x="284.6" y="20.3" class="st0" width="20.3" height="20.3"/>
	<rect id="XMLID_147_" x="305" y="20.3" class="st0" width="20.3" height="20.3"/>
	<rect id="XMLID_146_" x="325.3" y="20.3" class="st0" width="20.3" height="20.3"/>
	<rect id="XMLID_145_" x="345.6" y="20.3" class="st0" width="20.3" height="20.3"/>
	<rect id="XMLID_144_" x="366" y="20.3" class="st0" width="20.3" height="20.3"/>
	<rect id="XMLID_143_" x="386.3" y="20.3" class="st0" width="20.3" height="20.3"/>
	<rect id="XMLID_142_" x="406.6" y="20.3" class="st0" width="20.3" height="20.3"/>
	<rect id="XMLID_141_" x="426.9" y="20.3" class="st0" width="20.3" height="20.3"/>
	<rect id="XMLID_140_" x="447.3" y="20.3" class="st0" width="20.3" height="20.3"/>
	<rect id="XMLID_83_" x="508.3" y="20.3" class="st0" width="20.3" height="20.3"/>
	<rect id="XMLID_81_" x="508.3" y="0" class="st0" width="20.3" height="20.3"/>
	<rect id="XMLID_139_" x="467.6" y="20.3" class="st1" width="20.3" height="20.3"/>
	<rect id="XMLID_138_" x="487.9" y="20.3" class="st0" width="20.3" height="20.3"/>
	<rect id="XMLID_80_" x="528.6" y="0" class="st0" width="20.3" height="20.3"/>
	<rect id="XMLID_79_" x="548.9" y="20.3" class="st1" width="20.3" height="20.3"/>
	<rect id="XMLID_78_" x="548.9" y="0" class="st0" width="20.3" height="20.3"/>
	<rect id="XMLID_77_" x="528.6" y="20.3" class="st0" width="20.3" height="20.3"/>
	<rect id="XMLID_189_" x="569.3" y="0" class="st0" width="20.3" height="20.3"/>
	<rect id="XMLID_188_" x="589.6" y="20.3" class="st0" width="20.3" height="20.3"/>
	<rect id="XMLID_187_" x="589.6" y="0" class="st1" width="20.3" height="20.3"/>
	<rect id="XMLID_191_" x="609.9" y="20.3" class="st0" width="20.3" height="20.3"/>
	<rect id="XMLID_190_" x="609.9" y="0" class="st0" width="20.3" height="20.3"/>
	<rect id="XMLID_186_" x="569.3" y="20.3" class="st0" width="20.3" height="20.3"/>
	<rect id="XMLID_137_" x="122" y="40.7" class="st2" width="20.3" height="20.3"/>
	<rect id="XMLID_136_" x="142.3" y="40.7" class="st2" width="20.3" height="20.3"/>
	<rect id="XMLID_135_" x="162.6" y="40.7" class="st2" width="20.3" height="20.3"/>
	<rect id="XMLID_134_" x="183" y="40.7" class="st2" width="20.3" height="20.3"/>
	<rect id="XMLID_133_" x="203.3" y="40.7" class="st2" width="20.3" height="20.3"/>
	<rect id="XMLID_132_" x="223.6" y="40.7" class="st2" width="20.3" height="20.3"/>
	<rect id="XMLID_131_" x="244" y="40.7" class="st2" width="20.3" height="20.3"/>
	<rect id="XMLID_130_" x="264.3" y="40.7" class="st2" width="20.3" height="20.3"/>
	<rect id="XMLID_129_" x="284.6" y="40.7" class="st3" width="20.3" height="20.3"/>
	<rect id="XMLID_128_" x="305" y="40.7" class="st2" width="20.3" height="20.3"/>
	<rect id="XMLID_127_" x="325.3" y="40.7" class="st2" width="20.3" height="20.3"/>
	<rect id="XMLID_126_" x="345.6" y="40.7" class="st2" width="20.3" height="20.3"/>
	<rect id="XMLID_125_" x="366" y="40.7" class="st2" width="20.3" height="20.3"/>
	<rect id="XMLID_124_" x="386.3" y="40.7" class="st2" width="20.3" height="20.3"/>
	<rect id="XMLID_123_" x="406.6" y="40.7" class="st2" width="20.3" height="20.3"/>
	<rect id="XMLID_76_" x="426.9" y="40.7" class="st2" width="20.3" height="20.3"/>
	<rect id="XMLID_75_" x="447.3" y="40.7" class="st2" width="20.3" height="20.3"/>
	<rect id="XMLID_74_" x="467.6" y="40.7" class="st2" width="20.3" height="20.3"/>
	<rect id="XMLID_73_" x="487.9" y="40.7" class="st2" width="20.3" height="20.3"/>
	<rect id="XMLID_72_" x="122" y="61" class="st2" width="20.3" height="20.3"/>
	<rect id="XMLID_71_" x="142.3" y="61" class="st2" width="20.3" height="20.3"/>
	<rect id="XMLID_70_" x="162.6" y="61" class="st2" width="20.3" height="20.3"/>
	<rect id="XMLID_66_" x="183" y="61" class="st3" width="20.3" height="20.3"/>
	<rect id="XMLID_65_" x="203.3" y="61" class="st2" width="20.3" height="20.3"/>
	<rect id="XMLID_64_" x="223.6" y="61" class="st2" width="20.3" height="20.3"/>
	<rect id="XMLID_63_" x="244" y="61" class="st2" width="20.3" height="20.3"/>
	<rect id="XMLID_62_" x="264.3" y="61" class="st2" width="20.3" height="20.3"/>
	<rect id="XMLID_61_" x="284.6" y="61" class="st2" width="20.3" height="20.3"/>
	<rect id="XMLID_60_" x="305" y="61" class="st2" width="20.3" height="20.3"/>
	<rect id="XMLID_59_" x="325.3" y="61" class="st2" width="20.3" height="20.3"/>
	<rect id="XMLID_58_" x="345.6" y="61" class="st2" width="20.3" height="20.3"/>
	<rect id="XMLID_57_" x="366" y="61" class="st3" width="20.3" height="20.3"/>
	<rect id="XMLID_56_" x="386.3" y="61" class="st2" width="20.3" height="20.3"/>
	<rect id="XMLID_55_" x="406.6" y="61" class="st2" width="20.3" height="20.3"/>
	<rect id="XMLID_54_" x="426.9" y="61" class="st2" width="20.3" height="20.3"/>
	<rect id="XMLID_53_" x="447.3" y="61" class="st2" width="20.3" height="20.3"/>
	<rect id="XMLID_52_" x="467.6" y="61" class="st3" width="20.3" height="20.3"/>
	<rect id="XMLID_51_" x="487.9" y="61" class="st2" width="20.3" height="20.3"/>
	<rect id="XMLID_50_" x="122" y="81.3" class="st2" width="20.3" height="20.3"/>
	<rect id="XMLID_49_" x="142.3" y="81.3" class="st2" width="20.3" height="20.3"/>
	<rect id="XMLID_48_" x="162.6" y="81.3" class="st2" width="20.3" height="20.3"/>
	<rect id="XMLID_47_" x="183" y="81.3" class="st2" width="20.3" height="20.3"/>
	<rect id="XMLID_215_" x="40.7" y="40.7" class="st2" width="20.3" height="20.3"/>
	<rect id="XMLID_214_" x="61" y="40.7" class="st2" width="20.3" height="20.3"/>
	<rect id="XMLID_213_" x="81.3" y="40.7" class="st2" width="20.3" height="20.3"/>
	<rect id="XMLID_212_" x="101.7" y="40.7" class="st2" width="20.3" height="20.3"/>
	<rect id="XMLID_211_" x="40.7" y="61" class="st2" width="20.3" height="20.3"/>
	<rect id="XMLID_210_" x="61" y="61" class="st2" width="20.3" height="20.3"/>
	<rect id="XMLID_209_" x="81.3" y="61" class="st2" width="20.3" height="20.3"/>
	<rect id="XMLID_208_" x="101.7" y="61" class="st2" width="20.3" height="20.3"/>
	<rect id="XMLID_207_" x="40.7" y="81.3" class="st2" width="20.3" height="20.3"/>
	<rect id="XMLID_206_" x="61" y="81.3" class="st2" width="20.3" height="20.3"/>
	<rect id="XMLID_221_" x="0" y="40.7" class="st2" width="20.3" height="20.3"/>
	<rect id="XMLID_220_" x="20.3" y="40.7" class="st2" width="20.3" height="20.3"/>
	<rect id="XMLID_219_" x="0" y="61" class="st2" width="20.3" height="20.3"/>
	<rect id="XMLID_218_" x="20.3" y="61" class="st3" width="20.3" height="20.3"/>
	<rect id="XMLID_217_" x="0" y="81.3" class="st2" width="20.3" height="20.3"/>
	<rect id="XMLID_216_" x="20.3" y="81.3" class="st2" width="20.3" height="20.3"/>
	<rect id="XMLID_205_" x="81.3" y="81.3" class="st2" width="20.3" height="20.3"/>
	<rect id="XMLID_204_" x="101.7" y="81.3" class="st3" width="20.3" height="20.3"/>
	<rect id="XMLID_46_" x="203.3" y="81.3" class="st2" width="20.3" height="20.3"/>
	<rect id="XMLID_45_" x="223.6" y="81.3" class="st2" width="20.3" height="20.3"/>
	<rect id="XMLID_44_" x="244" y="81.3" class="st2" width="20.3" height="20.3"/>
	<rect id="XMLID_35_" x="264.3" y="81.3" class="st2" width="20.3" height="20.3"/>
	<rect id="XMLID_34_" x="284.6" y="81.3" class="st2" width="20.3" height="20.3"/>
	<rect id="XMLID_26_" x="305" y="81.3" class="st2" width="20.3" height="20.3"/>
	<rect id="XMLID_25_" x="325.3" y="81.3" class="st3" width="20.3" height="20.3"/>
	<rect id="XMLID_23_" x="345.6" y="81.3" class="st2" width="20.3" height="20.3"/>
	<rect id="XMLID_22_" x="366" y="81.3" class="st2" width="20.3" height="20.3"/>
	<rect id="XMLID_21_" x="386.3" y="81.3" class="st2" width="20.3" height="20.3"/>
	<rect id="XMLID_20_" x="406.6" y="81.3" class="st2" width="20.3" height="20.3"/>
	<rect id="XMLID_19_" x="426.9" y="81.3" class="st2" width="20.3" height="20.3"/>
	<rect id="XMLID_18_" x="447.3" y="81.3" class="st2" width="20.3" height="20.3"/>
	<rect id="XMLID_17_" x="467.6" y="81.3" class="st2" width="20.3" height="20.3"/>
	<rect id="XMLID_6_" x="487.9" y="81.3" class="st2" width="20.3" height="20.3"/>
	<rect id="XMLID_236_" x="508.3" y="40.7" class="st2" width="20.3" height="20.3"/>
	<rect id="XMLID_235_" x="528.6" y="40.7" class="st3" width="20.3" height="20.3"/>
	<rect id="XMLID_234_" x="548.9" y="40.7" class="st2" width="20.3" height="20.3"/>
	<rect id="XMLID_233_" x="569.3" y="40.7" class="st2" width="20.3" height="20.3"/>
	<rect id="XMLID_232_" x="589.6" y="40.7" class="st2" width="20.3" height="20.3"/>
	<rect id="XMLID_231_" x="508.3" y="61" class="st2" width="20.3" height="20.3"/>
	<rect id="XMLID_230_" x="528.6" y="61" class="st2" width="20.3" height="20.3"/>
	<rect id="XMLID_229_" x="548.9" y="61" class="st2" width="20.3" height="20.3"/>
	<rect id="XMLID_228_" x="569.3" y="61" class="st2" width="20.3" height="20.3"/>
	<rect id="XMLID_227_" x="589.6" y="61" class="st2" width="20.3" height="20.3"/>
	<rect id="XMLID_226_" x="508.3" y="81.3" class="st2" width="20.3" height="20.3"/>
	<rect id="XMLID_225_" x="528.6" y="81.3" class="st2" width="20.3" height="20.3"/>
	<rect id="XMLID_224_" x="548.9" y="81.3" class="st2" width="20.3" height="20.3"/>
	<rect id="XMLID_223_" x="569.3" y="81.3" class="st2" width="20.3" height="20.3"/>
	<rect id="XMLID_222_" x="589.6" y="81.3" class="st3" width="20.3" height="20.3"/>
	<rect id="XMLID_239_" x="609.9" y="40.7" class="st2" width="20.3" height="20.3"/>
	<rect id="XMLID_238_" x="609.9" y="61" class="st2" width="20.3" height="20.3"/>
	<rect id="XMLID_237_" x="609.9" y="81.3" class="st2" width="20.3" height="20.3"/>
</g>
</svg>
