<?xml version="1.0" encoding="utf-8"?>
<!-- Generator: Adobe Illustrator 19.0.0, SVG Export Plug-In . SVG Version: 6.00 Build 0)  -->
<svg version="1.1" id="Layer_1" xmlns="http://www.w3.org/2000/svg" xmlns:xlink="http://www.w3.org/1999/xlink" x="0px" y="0px"
	 viewBox="0 0 45 80" style="enable-background:new 0 0 45 80;" xml:space="preserve">
<g id="XMLID_162_">
	<path id="XMLID_167_" d="M22.5,52.3l20-10l2.1-1.1L22.5,0L0.3,41.2L22.5,52.3z M21.3,49L5.8,41.2l15.5-7.8V49z M23.7,49V33.5
		l15.5,7.8L23.7,49z M23.7,30.7V7.1L41,39.4L23.7,30.7z M21.3,7.2v23.6L4.1,39.3L21.3,7.2z"/>
	<path id="XMLID_163_" d="M0.3,46.8L22.5,80l22.2-33.2L22.5,57.8L0.3,46.8z M21.3,59.9v13.9L7.4,53L21.3,59.9z M23.7,73.8V59.9
		L37.6,53L23.7,73.8z"/>
</g>
</svg>
