<?xml version="1.0" encoding="utf-8"?>
<!-- Generator: Adobe Illustrator 19.0.0, SVG Export Plug-In . SVG Version: 6.00 Build 0)  -->
<svg version="1.1" id="Layer_1" xmlns="http://www.w3.org/2000/svg" xmlns:xlink="http://www.w3.org/1999/xlink" x="0px" y="0px"
	 viewBox="0 0 80 80" style="enable-background:new 0 0 80 80;" xml:space="preserve">
<style type="text/css">
	.st0{fill:#212121;}
	.st1{fill-rule:evenodd;clip-rule:evenodd;}
</style>
<g id="XMLID_1_">
	<path id="XMLID_20_" class="st0" d="M79,1v78H1V1H79 M80,0H0v80h80V0L80,0z"/>
</g>
<g id="XMLID_5_">
	<title>library /icon /rock /default</title>
	<desc>Created with Sketch.</desc>
	<g id="XMLID_6_">
		<g id="Group-8_2_" transform="translate(3.937648, 3.294528)">
			<path id="Fill-1_3_" class="st1" d="M35.3,61.2c-12.5,0-22.6-10.1-22.6-22.6c0-3,0.6-6,1.7-8.7L24.6,38l10.8-18.5l11.9,18.7
				l8.9-8.2c1.1,2.7,1.7,5.6,1.7,8.6C57.9,51,47.8,61.2,35.3,61.2 M60.4,21.6l-2.5-3.7l-9,8.4L35.2,4.8L22.5,26.5l-10.1-8.1
				l-2.3,3.5c-3.3,4.9-5,10.7-5,16.7c0,16.7,13.6,30.2,30.2,30.2c16.7,0,30.2-13.6,30.2-30.2C65.6,32.5,63.8,26.6,60.4,21.6"/>
			<path id="Fill-3_3_" class="st1" d="M37.5,39.5L35.3,38l-2.1,1.4c-6.7,4.5-9,11.9-9.4,13.1H32c0.6-1.4,1.7-3.3,3.3-5
				c1.3,1.2,2.8,2.9,3.9,5h8.2C45.1,44.7,37.8,39.7,37.5,39.5"/>
		</g>
	</g>
</g>
</svg>
