<?xml version="1.0" encoding="utf-8"?>
<!-- Generator: Adobe Illustrator 19.0.0, SVG Export Plug-In . SVG Version: 6.00 Build 0)  -->
<svg version="1.1" id="Layer_1" xmlns="http://www.w3.org/2000/svg" xmlns:xlink="http://www.w3.org/1999/xlink" x="0px" y="0px"
	 viewBox="0 0 341 474.3" style="enable-background:new 0 0 341 474.3;" xml:space="preserve">
<style type="text/css">
	.st0{fill:none;stroke:#000000;stroke-miterlimit:10;}
	.st1{fill:#FFFFFF;stroke:#000000;stroke-miterlimit:10;}
	.st2{fill:#FFFFFF;stroke:#000000;stroke-width:0.5;stroke-linejoin:bevel;stroke-miterlimit:10;}
	.st3{fill:#9191A3;stroke:#000000;stroke-miterlimit:10;}
	.st4{fill:#484757;stroke:#000000;stroke-miterlimit:10;}
	.st5{fill:#FFF032;stroke:#000000;stroke-miterlimit:10;}
	.st6{fill:#35D1E7;stroke:#000000;stroke-miterlimit:10;}
	.st7{fill:#3FE04B;stroke:#000000;stroke-miterlimit:10;}
	.st8{fill:#FF506E;stroke:#000000;stroke-miterlimit:10;}
	.st9{fill:#8F5CE0;stroke:#000000;stroke-miterlimit:10;}
	.st10{fill:#30303A;stroke:#000000;stroke-miterlimit:10;}
</style>
<g id="XMLID_26_">
	<polygon id="XMLID_59_" class="st0" points="95,228.2 143,187.1 146.3,117.1 146.3,87.4 151.8,106.2 227.8,51.4 326.8,7.9 
		316.3,17.4 230.8,55.9 154.3,109.9 155.3,118.1 151.8,124.4 151.8,180.5 147.3,192.4 103.3,230.2 	"/>
	<polyline id="XMLID_60_" class="st0" points="137.3,219.8 192,194.1 235.3,187.1 	"/>
	<polyline id="XMLID_65_" class="st0" points="95,228.2 135.8,183.4 145.6,132.4 	"/>
	<path id="XMLID_35_" class="st1" d="M85,157.2l24.6,7.5l27,56.2H81.8c6.7-13.6,9.7-36.5,9.7-36.5l-19.2-13.8"/>
	<polyline id="XMLID_56_" class="st0" points="154.7,113.4 241.6,110.1 326.8,113.4 311.6,115.4 240.6,115.4 155.3,118.1 	"/>
	<polyline id="XMLID_61_" class="st0" points="155.3,118.1 205.6,152 240.8,188.4 235.3,187.1 203.3,155.3 153.1,122.1 	"/>
	<polyline id="XMLID_62_" class="st0" points="238,185.6 252.8,145.8 310.1,115.4 	"/>
	<polyline id="XMLID_63_" class="st0" points="313.7,112.9 296.9,58.4 316.3,17.4 	"/>
	<polyline id="XMLID_55_" class="st0" points="66.9,153 81.3,147.5 103.2,143.6 80.3,160.4 70.4,160.8 	"/>
	<polyline id="XMLID_54_" class="st0" points="71,151.5 70,144.8 65.9,142.9 46.1,150.7 51.3,152.7 50.8,154.1 32.6,160.8 
		27.2,158.3 18.8,166.2 31.7,169.1 54.7,157.2 	"/>
	<polyline id="XMLID_53_" class="st0" points="49.8,157.8 54.7,157.2 55.5,161.6 	"/>
	<polyline id="XMLID_52_" class="st0" points="20.6,166.6 30.3,177.6 34.8,172.5 43.8,171.4 79.3,170.3 89.5,165.8 76.3,160.5 	"/>
	<polyline id="XMLID_51_" class="st0" points="70,145.1 100.1,125.6 81.3,144.8 80.6,147.7 	"/>
	<path id="XMLID_50_" class="st0" d="M62.3,157.2c0,0,0.4-2.8-0.9-3.7l-10.5,0.6"/>
	<polygon id="XMLID_49_" points="55.9,153.8 61,147.4 51.3,152.7 50.8,154.1 	"/>
	<polygon id="XMLID_48_" class="st2" points="51.9,158.7 51.3,166.5 49.8,159.8 	"/>
	<polygon id="XMLID_47_" class="st2" points="46.1,161.6 48.2,165.5 48.6,160.3 	"/>
	<polygon id="XMLID_46_" class="st2" points="43.6,162.9 45.3,164.7 45.3,162 	"/>
	<polygon id="XMLID_45_" class="st2" points="26.8,168 29.8,163.4 29.8,168.7 	"/>
	<polygon id="XMLID_44_" class="st2" points="31.7,169.1 32.4,164.7 33.6,168.1 	"/>
</g>
<g id="XMLID_25_">
	<rect id="XMLID_81_" x="57.9" y="245.3" class="st3" width="137.7" height="212.8"/>
	<rect id="XMLID_6_" x="42.7" y="238.8" class="st3" width="167.4" height="6.5"/>
	<path id="XMLID_20_" class="st4" d="M203,245.3v35.4h-11.9v-2.6c0-17.2-5.9-20.6-13.2-20.6c-7.3,0-13.2,3.4-13.2,20.6v2.6h-6.7
		v-2.6c0-17.2-5.9-20.6-13.2-20.6c-7.3,0-13.2,3.4-13.2,20.6v2.6h-9.7v-2.6c0-17.2-5.9-20.6-13.2-20.6c-7.3,0-13.2,3.4-13.2,20.6
		v2.6h-6.7v-2.6c0-17.2-5.9-20.6-13.2-20.6c-7.3,0-13.2,3.4-13.2,20.6v2.6H50.8v-35.4H203z"/>
	<circle id="XMLID_18_" class="st5" cx="126.9" cy="255" r="3.5"/>
	<circle id="XMLID_21_" class="st6" cx="160.9" cy="255" r="3.5"/>
	<circle id="XMLID_22_" class="st7" cx="193.9" cy="255" r="3.5"/>
	<circle id="XMLID_19_" class="st8" cx="92.9" cy="255" r="3.5"/>
	<circle id="XMLID_23_" class="st9" cx="59.9" cy="255" r="3.5"/>
	<polygon id="XMLID_17_" class="st10" points="52.3,204.5 72.6,204.5 72.6,220.8 93.1,220.8 93.1,204.5 113.8,204.5 113.8,220.8 
		139.9,220.8 139.9,204.5 160.8,204.5 160.8,220.8 181.3,220.8 181.3,204.5 201.8,204.5 201.8,238.8 52.3,238.8 	"/>
	<rect id="XMLID_57_" x="110.5" y="433.8" class="st10" width="33" height="24.2"/>
	<rect id="XMLID_80_" x="21.3" y="458" class="st10" width="211.4" height="16.3"/>
	<rect id="XMLID_58_" x="160.5" y="433.8" class="st10" width="25.1" height="24.2"/>
	<rect id="XMLID_70_" x="202.5" y="433.8" class="st10" width="25.1" height="24.2"/>
	<rect id="XMLID_66_" x="68.4" y="433.8" class="st10" width="25.1" height="24.2"/>
	<rect id="XMLID_64_" x="26.4" y="433.8" class="st10" width="25.1" height="24.2"/>
	<path id="XMLID_88_" d="M76.7,300.7c0-2.7-2.2-4.9-4.9-4.9s-4.9,2.2-4.9,4.9c0,0.1,0,0.1,0,0.2h0v116.3h9.9V300.9h0
		C76.7,300.8,76.7,300.8,76.7,300.7z"/>
	<path id="XMLID_87_" d="M95.4,299.7c0-2.2-1.8-3.9-3.9-3.9c-2.2,0-3.9,1.8-3.9,3.9c0,0,0,0.1,0,0.1h0v43h7.9v-43h0
		C95.4,299.8,95.4,299.8,95.4,299.7z"/>
	<path id="XMLID_89_" d="M158.4,299.7c0-2.2,1.8-3.9,3.9-3.9s3.9,1.8,3.9,3.9c0,0,0,0.1,0,0.1h0v43h-7.9v-43h0
		C158.4,299.8,158.4,299.8,158.4,299.7z"/>
	<path id="XMLID_83_" d="M177.1,300.7c0-2.7,2.2-4.9,4.9-4.9s4.9,2.2,4.9,4.9c0,0.1,0,0.1,0,0.2h0v116.3h-9.9V300.9h0
		C177.1,300.8,177.1,300.8,177.1,300.7z"/>
	<path id="XMLID_34_" d="M127.4,295.8c-8,0-14.5,6.5-14.5,14.5c0,0,0,0,0,0v123.6h29V310.3C141.9,302.3,135.4,295.8,127.4,295.8z"/>
</g>
</svg>
