<?xml version="1.0" encoding="UTF-8"?>
<svg width="166px" height="59px" viewBox="0 0 166 59" version="1.1" xmlns="http://www.w3.org/2000/svg" xmlns:xlink="http://www.w3.org/1999/xlink">
    <!-- Generator: sketchtool 54.1 (76490) - https://sketchapp.com -->
    <title>7EB14AF3-6FC7-4ABB-BBCC-AC6E43DA174A@1.00x</title>
    <desc>Created with sketchtool.</desc>
    <g id="Guideline" stroke="none" stroke-width="1" fill="none" fill-rule="evenodd">
        <g id="guideline" transform="translate(-170.000000, -86.000000)" fill="#000000">
            <g id="library-/logo-/#full" transform="translate(170.000000, 86.000000)">
                <g id="CheezeWizards_logo">
                    <path d="M53.2047776,19.4971889 L53.2047776,22.675576 L53.5493575,22.675576 L53.5493575,19.4971889 C53.5493575,17.6952645 55.0186306,16.2345161 56.8310708,16.2345161 L60.1127842,16.2345161 L60.1127842,15.8158065 L56.8310708,15.8158065 C55.0186306,15.8158065 53.5493575,14.3550581 53.5493575,12.5531336 L53.5493575,9.64119816 L53.2047776,9.64119816 L53.2047776,12.5531336 C53.2047776,14.3550581 51.7355045,15.8158065 49.9230643,15.8158065 L46.9941351,15.8158065 L46.9941351,16.2345161 L49.9230643,16.2345161 C51.7355045,16.2345161 53.2047776,17.6952645 53.2047776,19.4971889 L53.2047776,19.4971889 Z" id="Path" fill-rule="nonzero"></path>
                    <path d="M7.93080725,16.4411521 C9.10625802,16.4466367 10.2484434,16.0534112 11.1687644,15.3264055 L11.2125206,12.2594931 L10.8050412,12.2594931 C10.6491598,13.2546083 9.51149918,14.2306912 7.92807249,14.2306912 C6.81048814,14.2638732 5.76321322,13.6900578 5.19456362,12.7329666 C4.62591402,11.7758754 4.62591402,10.5870278 5.19456362,9.62993661 C5.76321322,8.67284541 6.81048814,8.09903003 7.92807249,8.13221198 C9.51149918,8.13221198 10.6327512,9.21976959 10.8050412,10.1197235 L11.2125206,10.1197235 C11.2125206,9.22792627 11.1605601,7.72165899 11.1605601,7.01746544 C9.33077616,5.61141335 6.79456778,5.5495322 4.89761244,6.86465528 C3.0006571,8.17977836 2.18240916,10.5672403 2.87701978,12.7602865 C3.5716304,14.9533327 5.618184,16.4439155 7.93080725,16.4411521 L7.93080725,16.4411521 Z" id="Path" fill-rule="nonzero"></path>
                    <path d="M33.3422076,15.8076498 L33.2218781,15.8076498 L33.1343657,16.2182028 L33.2738386,16.2182028 C33.5473147,16.2182028 33.8918946,16.1828571 34.0942669,16.1828571 L36.3012191,16.1828571 C36.5063262,16.1828571 36.8481713,16.2182028 37.1216474,16.2182028 L37.2583855,16.2182028 L37.1927512,15.8076498 L37.0724217,15.8076498 C36.588369,15.7559908 36.4160791,15.6526728 36.4160791,14.9919816 L36.4160791,11.9005991 L38.9156507,11.9005991 L38.9156507,14.9838249 C38.9156507,15.6526728 38.7433608,15.7559908 38.2620428,15.7994931 L38.1389786,15.7994931 L38.0377924,16.2100461 L38.190939,16.2100461 C38.4644152,16.2100461 38.8117298,16.1747005 39.0113674,16.1747005 L41.1991763,16.1747005 C41.4042834,16.1747005 41.7461285,16.2100461 42.0196046,16.2100461 L42.175486,16.2100461 L42.0879736,15.7994931 L41.9512356,15.7994931 C41.4699176,15.7478341 41.3140362,15.6445161 41.3140362,14.9838249 L41.3140362,7.37092166 C41.3140362,6.70207373 41.4699176,6.59875576 41.9512356,6.55525346 L42.0879736,6.55525346 L42.175486,6.14470046 L42.0196046,6.14470046 C41.7461285,6.14470046 41.3988138,6.18004608 41.1991763,6.18004608 L39.0113674,6.18004608 C38.8035255,6.18004608 38.4644152,6.14470046 38.190939,6.14470046 L38.0377924,6.14470046 L38.1389786,6.55525346 L38.2620428,6.55525346 C38.7433608,6.60691244 38.9156507,6.71023041 38.9156507,7.37092166 L38.9156507,10.0599078 L36.4160791,10.0599078 L36.4160791,7.37907834 C36.4160791,6.71023041 36.588369,6.60691244 37.0724217,6.56341014 L37.1927512,6.56341014 L37.2775288,6.15285714 L37.1407908,6.15285714 C36.8673147,6.15285714 36.52,6.18820276 36.3203624,6.18820276 L34.1134102,6.18820276 C33.9055684,6.18820276 33.566458,6.15285714 33.2929819,6.15285714 L33.1535091,6.15285714 L33.2410214,6.56341014 L33.3613509,6.56341014 C33.8426689,6.61506912 34.0149588,6.7183871 34.0149588,7.37907834 L34.0149588,14.9919816 C33.9958155,15.6526728 33.8235255,15.7695853 33.3422076,15.8076498 Z" id="Path" fill-rule="nonzero"></path>
                    <path d="M65.5029984,12.8603687 C65.5549588,12.3791244 65.6752883,12.2268664 66.2960791,12.2078341 L66.2960791,17.9175115 L68.2268204,16.1882949 L71.3608567,16.1882949 C72.0336079,16.1882949 72.1539374,16.3595853 72.2058979,16.8408295 L72.2058979,16.9604608 L72.6188468,17.0447465 L72.6188468,16.9088018 C72.6188468,16.6369124 72.5696211,16.2916129 72.5696211,16.0931336 L72.5696211,14.0920276 C72.5696211,13.9397696 72.6024382,13.7168203 72.6024382,13.493871 L72.1539374,13.6135023 C72.0691598,13.8853917 71.8804613,13.9723963 71.3608567,13.9723963 L68.7081384,13.9723963 L68.7081384,12.2078341 L71.3608567,12.2078341 C72.0336079,12.2078341 72.1539374,12.3981567 72.2058979,12.7217051 C72.2152475,12.7619588 72.2152475,12.8038015 72.2058979,12.8440553 L72.6188468,12.928341 L72.6188468,12.7923963 C72.6188468,12.5205069 72.5696211,12.3111521 72.5696211,12.107235 L72.5696211,10.3943318 C72.5696211,10.1876959 72.6188468,9.850553 72.6188468,9.57866359 L72.6188468,9.42640553 L72.1976936,9.51612903 C72.2072135,9.56094972 72.2072135,9.60725304 72.1976936,9.65207373 C72.1457331,9.91036866 72.0254036,10.1496313 71.3526524,10.1496313 L68.6999341,10.1496313 L68.6999341,8.38778802 L71.3526524,8.38778802 C71.8695222,8.38778802 72.0609555,8.47479263 72.1457331,8.74940092 L72.5942339,8.86903226 C72.5942339,8.64608295 72.5614168,8.42313364 72.5614168,8.26815668 L72.5614168,6.28336406 C72.5614168,6.07672811 72.6106425,5.73958525 72.6106425,5.46769585 L72.6106425,5.33175115 L72.1976936,5.41603687 L72.1976936,5.5356682 C72.1457331,6.01691244 72.0254036,6.18820276 71.3526524,6.18820276 L66.2960791,6.18820276 L66.2960791,10.1360369 C65.6752883,10.1197235 65.5549588,9.96474654 65.5029984,9.50253456 L65.5029984,9.36658986 L65.0873147,9.27958525 L65.0873147,9.43456221 C65.0873147,9.70645161 65.1228666,10.0517512 65.1228666,10.2502304 L65.1228666,12.1017972 C65.1228666,12.3057143 65.0873147,12.645576 65.0873147,12.9174654 L65.0873147,13.0534101 L65.5002636,12.9691244 L65.5029984,12.8603687 Z" id="Path" fill-rule="nonzero"></path>
                    <path d="M95.7576606,12.8603687 C95.8096211,12.3791244 95.9299506,12.2268664 96.5507414,12.2078341 L96.5507414,17.9175115 L98.4814827,16.1882949 L101.615519,16.1882949 C102.28827,16.1882949 102.4086,16.3595853 102.46056,16.8408295 L102.46056,16.9604608 L102.873509,17.0447465 L102.873509,16.9088018 C102.873509,16.6369124 102.821549,16.2916129 102.821549,16.0931336 L102.821549,14.0920276 C102.821549,13.9397696 102.8571,13.7168203 102.8571,13.493871 L102.4086,13.6135023 C102.323822,13.8853917 102.135124,13.9723963 101.615519,13.9723963 L98.9628007,13.9723963 L98.9628007,12.2078341 L101.615519,12.2078341 C102.28827,12.2078341 102.4086,12.3981567 102.46056,12.7217051 C102.46991,12.7619588 102.46991,12.8038015 102.46056,12.8440553 L102.873509,12.928341 L102.873509,12.7923963 C102.873509,12.5205069 102.821549,12.3111521 102.821549,12.107235 L102.821549,10.3943318 C102.821549,10.1876959 102.873509,9.850553 102.873509,9.57866359 L102.873509,9.42640553 L102.46056,9.51069124 C102.47008,9.55551193 102.47008,9.60181526 102.46056,9.64663594 C102.4086,9.90493088 102.28827,10.1441935 101.615519,10.1441935 L98.9628007,10.1441935 L98.9628007,8.38778802 L101.615519,8.38778802 C102.132389,8.38778802 102.323822,8.47479263 102.4086,8.74940092 L102.8571,8.86903226 C102.8571,8.64608295 102.821549,8.42313364 102.821549,8.26815668 L102.821549,6.28336406 C102.821549,6.07672811 102.873509,5.73958525 102.873509,5.46769585 L102.873509,5.33175115 L102.46056,5.41603687 L102.46056,5.5356682 C102.4086,6.01691244 102.28827,6.18820276 101.615519,6.18820276 L96.5507414,6.18820276 L96.5507414,10.1360369 C95.9299506,10.1197235 95.8096211,9.96474654 95.7576606,9.50253456 L95.7576606,9.36658986 L95.3447117,9.27958525 L95.3447117,9.43456221 C95.3447117,9.70645161 95.3802636,10.0517512 95.3802636,10.2502304 L95.3802636,12.1017972 C95.3802636,12.3057143 95.3447117,12.645576 95.3447117,12.9174654 L95.3447117,13.0534101 L95.7576606,12.9691244 L95.7576606,12.8603687 Z" id="Path" fill-rule="nonzero"></path>
                    <path d="M132.318682,16.1828571 C133.007842,16.1828571 133.111763,16.3541475 133.163723,16.8353917 L133.163723,16.955023 L133.576672,17.0393088 L133.576672,16.9033641 C133.576672,16.6314747 133.54112,16.2861751 133.54112,16.0876959 L133.54112,13.9914286 C133.54112,13.7847926 133.576672,13.4476498 133.576672,13.1757604 L133.576672,13.0235023 L133.163723,13.1241014 L133.163723,13.2464516 C133.111763,13.724977 133.007842,13.8962673 132.318682,13.8962673 L129.545634,13.8962673 L133.83374,6.18820276 L126.909325,6.18820276 C126.236573,6.18820276 126.116244,6.01691244 126.064283,5.5356682 L126.064283,5.41603687 L125.651334,5.33175115 L125.651334,5.46769585 C125.651334,5.73958525 125.703295,6.08488479 125.703295,6.28336406 L125.703295,8.28718894 C125.703295,8.49110599 125.651334,8.83096774 125.651334,9.10285714 L125.651334,9.2578341 L126.064283,9.15451613 L126.064283,9.03488479 C126.116244,8.55364055 126.236573,8.40138249 126.909325,8.40138249 L129.838254,8.40138249 L125.462636,16.1774194 L132.318682,16.1828571 Z" id="Path" fill-rule="nonzero"></path>
                    <path d="M156.171269,12.8603687 C156.223229,12.3791244 156.343558,12.2268664 156.964349,12.2078341 L156.964349,17.9175115 L158.889621,16.1828571 L162.023657,16.1828571 C162.696409,16.1828571 162.816738,16.3541475 162.868699,16.8353917 L162.868699,16.955023 L163.281647,17.0393088 L163.281647,16.9033641 C163.281647,16.6314747 163.232422,16.2861751 163.232422,16.0876959 L163.232422,14.0920276 C163.232422,13.9397696 163.265239,13.7168203 163.265239,13.493871 L162.816738,13.6135023 C162.73196,13.8853917 162.543262,13.9723963 162.023657,13.9723963 L159.370939,13.9723963 L159.370939,12.2078341 L162.023657,12.2078341 C162.696409,12.2078341 162.816738,12.3981567 162.868699,12.7217051 C162.878048,12.7619588 162.878048,12.8038015 162.868699,12.8440553 L163.281647,12.928341 L163.281647,12.7923963 C163.281647,12.5205069 163.232422,12.3111521 163.232422,12.107235 L163.232422,10.3943318 C163.232422,10.1876959 163.281647,9.850553 163.281647,9.57866359 L163.281647,9.42640553 L162.868699,9.51069124 C162.878218,9.55551193 162.878218,9.60181526 162.868699,9.64663594 C162.816738,9.90493088 162.696409,10.1441935 162.023657,10.1441935 L159.370939,10.1441935 L159.370939,8.38778802 L162.023657,8.38778802 C162.540527,8.38778802 162.73196,8.47479263 162.816738,8.74940092 L163.265239,8.86903226 C163.265239,8.64608295 163.232422,8.42313364 163.232422,8.26815668 L163.232422,6.28336406 C163.232422,6.07672811 163.281647,5.73958525 163.281647,5.46769585 L163.281647,5.33175115 L162.868699,5.41603687 L162.868699,5.5356682 C162.816738,6.01691244 162.696409,6.18820276 162.023657,6.18820276 L156.975288,6.18820276 L156.975288,10.1360369 C156.354498,10.1197235 156.234168,9.96474654 156.182208,9.50253456 L156.182208,9.36658986 L155.769259,9.27958525 L155.769259,9.43456221 C155.769259,9.70645161 155.804811,10.0517512 155.804811,10.2502304 L155.804811,12.1017972 C155.804811,12.3057143 155.769259,12.645576 155.769259,12.9174654 L155.769259,13.0534101 L156.182208,12.9691244 L156.171269,12.8603687 Z" id="Path" fill-rule="nonzero"></path>
                    <path d="M59.9104119,3.9043318 L59.9104119,4.81516129 L60.183888,4.81516129 L60.183888,3.90705069 C60.1853928,3.12083091 60.8260947,2.48384637 61.6169028,2.48235023 L62.5330478,2.48235023 L62.5330478,2.21046083 L61.6169028,2.21046083 C60.8260947,2.20896469 60.1853928,1.57198015 60.183888,0.785760369 L60.183888,0 L59.9104119,0 L59.9104119,0.780322581 C59.908907,1.56654236 59.2682051,2.2035269 58.477397,2.20502304 L57.7034596,2.20502304 L57.7034596,2.47691244 L58.4883361,2.47691244 C59.2759336,2.48437019 59.9104476,3.12126845 59.9104119,3.9043318 Z M60.0526194,1.43557604 C60.2236029,1.84505438 60.5497265,2.17123902 60.9605601,2.34368664 C60.5486695,2.52016971 60.2227274,2.85007704 60.0526194,3.26267281 C59.8802544,2.85347603 59.5546964,2.52688222 59.1446787,2.35184332 C59.5568966,2.17723022 59.8831683,1.84796632 60.0526194,1.43557604 L60.0526194,1.43557604 Z" id="Shape" fill-rule="nonzero"></path>
                    <path d="M160.319901,38.5430415 L155.908731,35.8894009 C153.841252,34.6985253 153.297035,33.9399539 153.297035,32.6267281 C153.297035,30.9953917 154.984382,29.9078341 157.051862,29.9078341 C159.556903,29.9078341 161.356376,31.3135023 162.007249,33.2085714 L163.207809,32.936682 C163.207809,30.217788 163.259769,28.1704608 163.259769,26.114977 C161.681812,24.9241014 159.450247,24.1111521 156.236903,24.1111521 C150.871301,24.1111521 147.704448,26.7511982 146.550379,30.1824424 C143.792207,26.5279848 139.546823,24.2767177 134.957727,24.035023 L100.707578,24.035023 L100.961911,25.2503687 L103.395848,25.2503687 C104.872619,25.4080645 105.400428,25.7234562 105.400428,27.7707834 L105.400428,50.4463594 L90.2142998,22.1943318 L76.4502471,47.8905991 L67.5485997,47.8905991 L80.8231301,24.0377419 L39.2547611,24.0377419 L39.5282372,25.1878341 L39.9275124,25.1878341 C41.4480395,25.3482488 42.2083031,26.2753917 41.3386491,27.884977 L34.173575,41.8084332 L30.6293245,34.9051613 L34.5372982,27.5641475 C35.4589127,25.7832719 35.6776936,25.3509677 37.1982208,25.190553 L37.6330478,25.190553 L37.870972,24.0404608 L28.0613839,24.0404608 L26.5627348,26.9714286 L25.0640857,24.0404608 L15.249028,24.0404608 L15.4869522,25.190553 L15.9217792,25.190553 C17.4423064,25.3509677 17.6610873,25.7832719 18.5827018,27.5641475 L22.4906755,34.9051613 L18.9628336,41.8111521 L11.7977595,27.8876959 C10.9281054,26.3216129 11.688369,25.3509677 13.2088962,25.190553 L13.589028,25.190553 L13.8761779,24.0404608 L0,24.0404608 L0.289884679,25.190553 L0.667281713,25.190553 C2.24250412,25.3509677 2.40658979,25.7832719 3.32820428,27.5641475 L18.9628336,57.0967742 L26.5627348,42.6866359 L34.1626359,57.0967742 L47.9540362,31.0524885 L47.9540362,51.3028111 C47.9540362,53.3746083 47.4207578,53.6927189 45.9248435,53.8531336 L45.552916,53.8531336 L45.2794399,55.125576 L45.7060626,55.125576 C46.5593081,55.125576 47.6203954,55.0195392 48.2712685,55.0195392 L75.1020099,55.0195392 L79.5295881,57.357788 C80.0628666,57.6758986 80.916112,58.2604608 81.6654366,58.6846083 L82.0920593,58.896682 L82.4667216,57.6215207 C82.3452,57.5613774 82.220077,57.508713 82.0920593,57.4638249 C80.8641516,56.6128111 80.6508402,55.9765899 81.5587809,54.2256221 L83,51.3028111 L97.4750906,51.3028111 L98.9163097,54.2256221 C99.8242504,56.0282488 99.610939,56.6128111 98.3283361,57.4638249 L98.008369,57.6215207 L98.3283361,58.896682 L98.7549588,58.6846083 C99.5562438,58.2604608 100.412224,57.6758986 100.942768,57.357788 L105.419572,54.9923502 L105.709456,54.9923502 L112.464316,54.9923502 C113.098781,54.9923502 114.154399,55.0983871 114.99944,55.0983871 L115.420593,55.0983871 L115.147117,53.8395392 L114.775189,53.8395392 C113.298418,53.6818433 112.77061,53.3664516 112.77061,51.3191244 L112.77061,42.5642857 L113.402339,42.5642857 L125.812685,54.9896313 L135.657825,54.9896313 C135.657825,54.9896313 140.512026,54.6089862 144.203954,51.1831797 L145.921384,53.2087558 L145.921384,53.2087558 L146.066326,53.3800461 L146.066326,53.3800461 C148.295157,55.9629954 151.500297,57.1076498 155.282471,57.1076498 C160.183163,57.1076498 165.740198,53.6954378 165.740198,47.4691705 C165.767545,42.9286175 163.47855,40.4381106 160.319901,38.5430415 Z M56.8611532,32.2460829 C57.0826689,31.24553 57.6241516,30.9029493 59.382603,30.9029493 L68.4620099,30.9029493 L56.8611532,51.5148848 L56.8611532,32.2460829 Z M94.2179901,44.7094931 C94.2179901,45.2179263 92.4321911,45.661106 90.2416474,45.661106 C88.0511038,45.661106 86.2789786,45.2179263 86.2680395,44.7094931 L86.2680395,44.7094931 L90.2142998,36.7050691 L93.9745964,36.7050691 L91.0921582,38.4587558 L94.2207249,44.712212 L94.2179901,44.7094931 Z M114.586491,37.2135023 L112.792488,37.2135023 L112.792488,29.2362673 L114.586491,29.2362673 C116.802199,29.2362673 118.598386,31.0220322 118.598386,33.2248848 C118.598386,35.4277374 116.802199,37.2135023 114.586491,37.2135023 Z M124.382405,43.7143779 L121.341351,40.6773733 C122.687769,39.6792689 123.737606,38.3377125 124.379671,36.7947926 L124.382405,43.7143779 Z M133.500099,48.6682028 L131.717035,48.6682028 L131.717035,30.2123502 L133.500099,30.2123502 C138.561927,30.2987547 142.619851,34.4029971 142.619851,39.4361982 C142.619851,44.4693992 138.561927,48.5736416 133.500099,48.6600461 L133.500099,48.6682028 Z M154.38547,50.6230876 C151.697199,50.6230876 149.137463,49.3642396 147.789226,46.7432258 C148.787135,44.9207589 149.400387,42.914967 149.591433,40.8486636 C150.197097,41.3338613 150.836835,41.7754449 151.505766,42.1700461 L154.937891,44.2282488 C157.060066,45.3647465 157.98715,46.3381106 157.98715,47.9612903 C157.978946,49.483871 156.455684,50.6149309 154.38547,50.6149309 L154.38547,50.6230876 Z" id="Shape" fill-rule="nonzero"></path>
                </g>
            </g>
        </g>
    </g>
</svg>