<?xml version="1.0" encoding="utf-8"?>
<!-- Generator: Adobe Illustrator 19.0.0, SVG Export Plug-In . SVG Version: 6.00 Build 0)  -->
<svg version="1.1" id="Layer_1" xmlns="http://www.w3.org/2000/svg" xmlns:xlink="http://www.w3.org/1999/xlink" x="0px" y="0px"
	 viewBox="0 0 80 80" style="enable-background:new 0 0 80 80;" xml:space="preserve">
<style type="text/css">
	.st0{fill:#212121;}
	.st1{fill-rule:evenodd;clip-rule:evenodd;fill:#35D1E7;}
</style>
<g id="XMLID_1_">
	<path id="XMLID_20_" class="st0" d="M78,2v76H2V2H78 M80,0H0v80h80V0L80,0z"/>
</g>
<g id="XMLID_3_">
	<title>library /icon /paper /default</title>
	<desc>Created with Sketch.</desc>
	<g id="XMLID_4_">
		<g id="Group-7_3_" transform="translate(3.273644, 5.294528)">
			<path id="Fill-14_2_" class="st1" d="M51.2,49.6c-0.4-0.2-0.7-0.4-1.1-0.6c-5.2-3-14.8-8.6-27.7,0.9C16,54.6,8.8,50.7,4.7,47.7
				v8.9c3.4,1.8,7.2,3,11.2,3c3.6,0,7.4-1,11-3.7c8.9-6.6,14.7-3.2,19.4-0.4c0.4,0.2,0.8,0.5,1.2,0.7c4.8,2.7,11.7,5.2,21.2,0.2
				v-8.9C59.4,54.2,54.2,51.3,51.2,49.6"/>
			<path id="Fill-16_2_" class="st1" d="M51.2,32.2c-0.4-0.2-0.7-0.4-1.1-0.6c-5.2-3-14.8-8.6-27.7,0.9C16,37.3,8.8,33.4,4.7,30.3
				v8.9c3.4,1.8,7.2,3,11.2,3c3.6,0,7.4-1,11-3.7c8.9-6.6,14.7-3.2,19.4-0.4c0.4,0.2,0.8,0.5,1.2,0.7c4.8,2.7,11.7,5.2,21.2,0.2
				v-8.9C59.4,36.8,54.2,33.9,51.2,32.2"/>
			<path id="Fill-18_2_" class="st1" d="M51.2,14.9c-0.4-0.2-0.7-0.4-1.1-0.6c-5.2-3-14.8-8.6-27.7,0.9C16,19.9,8.8,16,4.7,13v8.9
				c3.4,1.8,7.2,3,11.2,3c3.6,0,7.4-1,11-3.7c8.9-6.6,14.7-3.2,19.4-0.4c0.4,0.2,0.8,0.5,1.2,0.7c4.8,2.7,11.7,5.2,21.2,0.2v-8.9
				C59.4,19.5,54.2,16.5,51.2,14.9"/>
		</g>
	</g>
</g>
</svg>
