<?xml version="1.0" encoding="utf-8"?>
<!-- Generator: Adobe Illustrator 19.0.0, SVG Export Plug-In . SVG Version: 6.00 Build 0)  -->
<svg version="1.1" id="Layer_1" xmlns="http://www.w3.org/2000/svg" xmlns:xlink="http://www.w3.org/1999/xlink" x="0px" y="0px"
	 viewBox="0 0 80 80" style="enable-background:new 0 0 80 80;" xml:space="preserve">
<style type="text/css">
	.st0{filter:url(#Adobe_OpacityMaskFilter);}
	.st1{fill-rule:evenodd;clip-rule:evenodd;fill:#FFFFFF;}
	.st2{mask:url(#mask-2_1_);fill-rule:evenodd;clip-rule:evenodd;fill:#8BEA63;}
	.st3{fill:#212121;}
</style>
<g id="XMLID_3_">
	<title>library /icon /scissors /default</title>
	<desc>Created with Sketch.</desc>
	<g id="XMLID_4_">
		<g id="Group-14_2_" transform="translate(3.293970, 4.294528)">
			<g id="Group-13_2_">
				<g id="Clip-12_2_">
				</g>
				<defs>
					<filter id="Adobe_OpacityMaskFilter" filterUnits="userSpaceOnUse" x="4.7" y="8.7" width="64" height="57.6">
						<feColorMatrix  type="matrix" values="1 0 0 0 0  0 1 0 0 0  0 0 1 0 0  0 0 0 1 0"/>
					</filter>
				</defs>
				<mask maskUnits="userSpaceOnUse" x="4.7" y="8.7" width="64" height="57.6" id="mask-2_1_">
					<g id="XMLID_6_" class="st0">
						<polygon id="path-1_1_" class="st1" points="4.7,8.7 68.7,8.7 68.7,66.3 4.7,66.3 						"/>
					</g>
				</mask>
				<path id="Fill-11_2_" class="st2" d="M61.1,8.7H50.9c1.4,1.3,2.7,2.7,3.9,4.3c5.8,7.7,7.6,17.5,5.2,26.9
					c-4.4,16.9-19.7,19.6-28,18.5c-9.3-1.2-20.1-7.8-19.5-22.2c0.2-5.9,2.1-10.5,5.7-13.7c4.3-3.9,10.3-5,13.3-4.8
					c4.5,0.3,8.2,2,10.6,5c2.4,2.9,3.4,6.8,2.9,10.8c-0.7,5.6-5.5,8.8-9.7,8.7c-6.7-0.2-6.7-4-6.7-5.4c0-2.1,0.9-2.9,1.5-3.3
					c0.6-0.4,1.4-0.6,2.2-0.7v-7.7c-2.3,0.1-4.6,0.7-6.4,1.9c-3.2,2.1-5,5.5-5,9.7c0,7.8,5.4,12.8,14.1,13.1
					c7.6,0.2,16.3-5.4,17.5-15.3c0.8-6.1-0.9-12.1-4.6-16.6c-3.8-4.6-9.5-7.4-16-7.8C28,9.8,19.6,10.9,13,16.8
					C7.9,21.4,5,28,4.7,35.9C4.1,54.2,17.4,64.2,30.9,66c1.5,0.2,3,0.3,4.5,0.3c13,0,27.4-7.2,31.9-24.4
					C70.4,30.3,68.1,18.2,61.1,8.7"/>
			</g>
		</g>
	</g>
</g>
<g id="XMLID_1_">
	<path id="XMLID_20_" class="st3" d="M78,2v76H2V2H78 M80,0H0v80h80V0L80,0z"/>
</g>
</svg>
